<svg xmlns="http://www.w3.org/2000/svg" width="32" height="32" viewBox="0 0 32 32"><defs><style>.a{fill:none;}.b{fill:#354052;fill-rule:evenodd;}</style></defs><title>adjust</title><rect class="a" width="32" height="32"/><path class="b" d="M30,4H13.578A4.993,4.993,0,0,0,4.422,4H2A2,2,0,0,0,2,8H4.422a4.993,4.993,0,0,0,9.156,0H30a2,2,0,0,0,0-4ZM9,8a2,2,0,1,1,2-2A2,2,0,0,1,9,8ZM30,24H13.578a4.993,4.993,0,0,0-9.156,0H2a2,2,0,0,0,0,4H4.422a4.993,4.993,0,0,0,9.156,0H30a2,2,0,0,0,0-4ZM9,28a2,2,0,1,1,2-2A2,2,0,0,1,9,28ZM0,16a2,2,0,0,0,2,2H18.422a4.993,4.993,0,0,0,9.156,0H30a2,2,0,0,0,0-4H27.578a4.993,4.993,0,0,0-9.156,0H2A2,2,0,0,0,0,16Zm21,0a2,2,0,1,1,2,2A2,2,0,0,1,21,16Z"/></svg>