<svg xmlns="http://www.w3.org/2000/svg" width="32" height="32" viewBox="0 0 32 32"><defs><style>.a{fill:none;}.b{fill:#354052;fill-rule:evenodd;}</style></defs><title>api</title><rect class="a" width="31.966" height="31.966"/><path class="b" d="M19.939,15.6,17.9,17.632a1.5,1.5,0,0,0,2.121,2.121l2.036-2.035,2.475,2.474,2.828-2.828a9,9,0,0,0,.965-11.572l3.232-3.231A1.5,1.5,0,0,0,29.439.439L26.208,3.671a9,9,0,0,0-11.572.965L11.808,7.465l2.474,2.474-2.035,2.036A1.5,1.5,0,0,0,14.368,14.1L16.4,12.061ZM16.05,7.465l.707-.708a6,6,0,0,1,8.486,8.486l-.707.707ZM7.465,11.808,4.636,14.636a9,9,0,0,0-.965,11.572L.439,29.439a1.5,1.5,0,0,0,2.122,2.122l3.231-3.232a9,9,0,0,0,11.572-.965l2.828-2.828ZM15.95,24.536l-.707.707a6,6,0,0,1-8.486-8.486l.708-.707Z"/></svg>