<svg xmlns="http://www.w3.org/2000/svg" width="32" height="32" viewBox="0 0 32 32"><defs><style>.a{fill:none;}.b{fill:#354052;}</style></defs><title>collaboration</title><rect class="a" width="32" height="32"/><path class="b" d="M23,15a3,3,0,1,1,3-3A3,3,0,0,1,23,15ZM21,32V26a1,1,0,0,0-2,0v3H17V24a6,6,0,0,1,12,0v5H27V26a1,1,0,0,0-2,0v6h4a3,3,0,0,0,3-3h0V24a8.99,8.99,0,0,0-4.65-7.881l.007.008a6,6,0,1,0-8.715,0l.008-.008A9,9,0,0,0,14,24v5a3,3,0,0,0,3,3h4ZM14,12a9,9,0,0,1,.117-1.381,8.559,8.559,0,0,0-.758-.494,6,6,0,1,0-8.718,0A9,9,0,0,0,0,18v5a3,3,0,0,0,3,3H7V20a1,1,0,0,0-2,0v3H3V18a6,6,0,0,1,11.477-2.443c.059-.06.128-.109.189-.167A8.955,8.955,0,0,1,14,12ZM9,9a3,3,0,1,1,3-3A3,3,0,0,1,9,9Z"/></svg>