<svg xmlns="http://www.w3.org/2000/svg" width="32" height="32" viewBox="0 0 32 32"><defs><style>.a{fill:none;}.b{fill:#354052;}</style></defs><title>collection_fill</title><rect class="a" width="32" height="32"/><path class="b" d="M29.5,15.413,16.346,22.932a.94.94,0,0,1-.692,0L2.5,15.413A1,1,0,1,0,1.5,17.149l13.158,7.519a2.862,2.862,0,0,0,2.676,0L30.5,17.149a1,1,0,1,0-.992-1.736Zm0,6L16.346,28.932a.94.94,0,0,1-.692,0L2.5,21.413A1,1,0,1,0,1.5,23.149l13.158,7.519a2.862,2.862,0,0,0,2.676,0L30.5,23.149a1,1,0,1,0-.992-1.736ZM1.5,10.868l14,8a1,1,0,0,0,.992,0l14-8a1,1,0,0,0,0-1.736l-14-8a1,1,0,0,0-.992,0l-14,8a1,1,0,0,0,0,1.736Z"/></svg>