<svg xmlns="http://www.w3.org/2000/svg" width="32" height="32" viewBox="0 0 32 32"><defs><style>.a{fill:#354052;}.b{fill:none;}</style></defs><title>compare</title><path class="a" d="M32,20.062v-.005h0L27.647,13.2V7.141L17,5.839V3.723a2,2,0,1,0-2,0V5.6L4.353,4.293v6.249L.013,17.384H0L0,17.4l0,0H0a5.186,5.186,0,0,0,5.35,4.977,5.185,5.185,0,0,0,5.35-4.977h0l0,0,0-.018h-.014L6.353,10.543V6.551L15,7.608V27.674L9.2,32H22.8L17,27.674V7.853L25.647,8.91V13.2L21.3,20.057h0v.005h0a5.185,5.185,0,0,0,5.352,4.993A5.184,5.184,0,0,0,32,20.064h0ZM2.382,17.384,5.352,12.7l2.971,4.685Zm21.285,2.673,2.981-4.7,2.98,4.7Z"/><rect class="b" width="32" height="32"/></svg>