<svg xmlns="http://www.w3.org/2000/svg" width="32" height="32" viewBox="0 0 32 32"><defs><style>.a{fill:none;}.b{fill:#354052;fill-rule:evenodd;}</style></defs><title>cut</title><rect class="a" width="32" height="32"/><path class="b" d="M12,16,8.432,19.566a1.694,1.694,0,0,1-1.44.517A5.791,5.791,0,0,0,6,20a5.993,5.993,0,1,0,5.576,3.779A1.644,1.644,0,0,1,12,22l3-3L25,29c1.594,1.594,5,2.75,7,1L18,16,32,2c-2-1.75-5.406-.594-7,1L15,13l-3-3a1.644,1.644,0,0,1-.424-1.779,5.988,5.988,0,1,0-4.584,3.7,1.686,1.686,0,0,1,1.44.515ZM6,2A4,4,0,1,1,2,6,4,4,0,0,1,6,2ZM6,22a4,4,0,1,1-4,4A4,4,0,0,1,6,22Z"/></svg>