<svg xmlns="http://www.w3.org/2000/svg" width="32.001" height="32" viewBox="0 0 32.001 32"><defs><style>.a{fill:#354052;}.b{fill:none;}</style></defs><title>dashboard</title><path class="a" d="M16,11a2,2,0,1,0-2-2A2,2,0,0,0,16,11ZM9.637,9.635a2,2,0,1,0,2,2A2,2,0,0,0,9.637,9.635ZM9,18a2,2,0,1,0-2,2A2,2,0,0,0,9,18Zm.635,4.365a2,2,0,1,0,2,2A2,2,0,0,0,9.636,22.365ZM22.364,9.635a2,2,0,1,0,2,2A2,2,0,0,0,22.364,9.635ZM23,18a2,2,0,1,0,2-2A2,2,0,0,0,23,18Zm-.636,4.365a2,2,0,1,0,2,2A2,2,0,0,0,22.365,22.365Zm-8.63-5.422a2.5,2.5,0,1,0,4.531,2.114,2.741,2.741,0,0,0,.218-.759L19.8,9.844l-5.629,6.445A2.642,2.642,0,0,0,13.735,16.943ZM27.313,6.685A16,16,0,0,0,4.686,29.315a1.5,1.5,0,1,0,2.121-2.124,13,13,0,1,1,18.385,0,1.5,1.5,0,0,0,2.123,2.121h0A16,16,0,0,0,27.313,6.685Z"/><rect class="b" x="0.001" width="32" height="32"/></svg>