<svg xmlns="http://www.w3.org/2000/svg" width="2837" height="557.034" viewBox="0 0 2837 557.034"><defs><style>.a{fill:none;}.b{fill:#354052;}</style></defs><title>databases</title><rect class="a" y="525.034" width="32" height="32"/><path class="b" d="M19,529.034c-7.732,0-13,3.134-13,7v14c0,3.866,5.268,7,13,7s13-3.134,13-7v-14C32,532.168,26.732,529.034,19,529.034Zm0,2.25c6.075,0,10,2.127,10,4.75s-3.925,4.75-10,4.75-10-2.127-10-4.75S12.925,531.284,19,531.284Zm0,23.5c-6.075,0-10-2.127-10-4.75v-2.679a17.5,17.5,0,0,0,10,2.679,17.5,17.5,0,0,0,10-2.679v2.679C29,552.657,25.075,554.784,19,554.784Zm0-7c-6.075,0-10-2.127-10-4.75v-2.679a17.5,17.5,0,0,0,10,2.679,17.5,17.5,0,0,0,10-2.679v2.679C29,545.657,25.075,547.784,19,547.784ZM3,532.034c0-2.623,3.925-4.75,10-4.75l9.749,0A19.209,19.209,0,0,0,13,525.034c-7.732,0-13,3.134-13,7v12c0,1.761,1.093,3.371,3.015,4.6Z"/><path class="b" d="M2837,0h-12V2h12Zm0,6h-12V8h12Z"/></svg>