<svg xmlns="http://www.w3.org/2000/svg" width="32" height="32" viewBox="0 0 32 32"><defs><style>.a{fill:#354052;}.b{fill:none;}</style></defs><title>datacube</title><path class="a" d="M25,12.25V6.75L16,0,7,6.75v5.5l-4,3v10L12,32l4-3,4,3,9-6.75v-10ZM9,14.75l6,4.5v6.5l-6-4.5Zm7,2.75L9.667,12.75,16,8l6.333,4.75Zm1,1.75,6-4.5v6.5l-6,4.5ZM9,7.75,16,2.5l7,5.25v3L16,5.5,9,10.75ZM12,29.5,5,24.25v-8l2-1.5v7.5l7.333,5.5Zm15-5.25L20,29.5l-2.333-1.75L25,22.25v-7.5l2,1.5Z"/><rect class="b" width="32" height="32"/></svg>