<svg xmlns="http://www.w3.org/2000/svg" width="32" height="32" viewBox="0 0 32 32"><defs><style>.a{fill:none;}.b{fill:#354052;}</style></defs><title>data_pick_rotate</title><rect class="a" width="32" height="32"/><rect class="a" width="32" height="32"/><rect class="a" width="32" height="32"/><path class="b" d="M0,0V32H14V14H32V0ZM11,29H3V14h8Zm0-18H3V3h8Zm18,0H14V3H29Z"/><path class="b" d="M25.611,21.01a4.6,4.6,0,0,1-4.6,4.6H18.744l1.767-1.767L18.89,22.221,14,27.111,18.889,32l1.621-1.622-1.767-1.767H21.01a7.6,7.6,0,0,0,7.6-7.6h0V18.743l1.767,1.767L32,18.889,27.111,14l-4.889,4.889,1.622,1.621,1.767-1.767Z"/></svg>