<svg xmlns="http://www.w3.org/2000/svg" width="32" height="32" viewBox="0 0 32 32"><defs><style>.a{fill:none;}.b{fill:#354052;}</style></defs><title>details</title><rect class="a" width="32" height="32"/><path class="b" d="M19.809,23.98l8.051-8.051-1.414-1.414L18.4,22.566a3.941,3.941,0,0,0-4.908.677,5.939,5.939,0,0,1-2.242-8.318,3.955,3.955,0,0,0,1.118-.405l2.965,2.965,5.657-5.657L10.672,1.515l-.708.707L8.414.672a2,2,0,0,0-2.828,0L4.172,2.086a2,2,0,0,0,0,2.828l1.55,1.55-.707.708L6.98,9.137A3.962,3.962,0,0,0,6.5,11c0,.055.014.106.016.16A11.98,11.98,0,0,0,7.442,26H5.375v6h22V26h-7A3.96,3.96,0,0,0,19.809,23.98ZM16.375,24a2,2,0,1,1-2,2A2,2,0,0,1,16.375,24ZM10.5,9a2,2,0,1,1-2,2A2,2,0,0,1,10.5,9Zm7.657,2.828-2.829,2.829-1.479-1.48A3.992,3.992,0,0,0,8.323,7.651l-.48-.479,2.829-2.829ZM5.586,3.5,7,2.086H7l1.55,1.55L7.136,5.05ZM6.375,18a9.94,9.94,0,0,1,1.058-4.461A3.978,3.978,0,0,0,9.086,14.73a7.964,7.964,0,0,0,3.429,10.275,3.937,3.937,0,0,0-.14,1H10.391A9.985,9.985,0,0,1,6.375,18Zm19,10v2h-18V28H12.93a3.967,3.967,0,0,0,6.89,0Z"/></svg>