<svg xmlns="http://www.w3.org/2000/svg" width="32" height="32" viewBox="0 0 32 32"><defs><style>.a{fill:none;}.b{fill:#354052;}</style></defs><title>filter</title><rect class="a" width="32" height="32"/><path class="b" d="M27,4c.485,0,.791.145.91.431a1.094,1.094,0,0,1-.324,1.155l-9,9L18,15.172V25.781l-.032.02c-.56.337-3.235,1.775-3.968,2.126V15.172l-.586-.586-9-9A1.094,1.094,0,0,1,4.093,4.43C4.211,4.145,4.516,4,5,4H27m0-2H5C2,2,1.169,5.168,3,7l9,9V28.014A1.774,1.774,0,0,0,13.772,30a2.437,2.437,0,0,0,1.022-.237c.737-.344,3.584-1.875,4.206-2.25a1.7,1.7,0,0,0,1-1.5V16l9-9c1.836-1.832,1-5-2-5Z"/></svg>