<svg xmlns="http://www.w3.org/2000/svg" width="32" height="32" viewBox="0 0 32 32"><defs><style>.a{fill:none;}.b{fill:#354052;}</style></defs><title>folder_open</title><rect class="a" width="32" height="32"/><path class="b" d="M29,12V10a4,4,0,0,0-4-4H16.6l-4-4H4A4,4,0,0,0,0,6V30H29s2.555-12.4,2.9-14.5A2.924,2.924,0,0,0,29,12ZM2,6A2,2,0,0,1,4,4h7.771l4,4H25a2,2,0,0,1,2,2v2H19l-4,4H3L2,20.667Zm27.926,9.176c-.26,1.588-1.857,9.411-2.557,12.824H2.474L4.617,18H15.828l4-4H29a1.028,1.028,0,0,1,.756.345A.973.973,0,0,1,29.926,15.176Z"/></svg>