<svg xmlns="http://www.w3.org/2000/svg" width="32" height="32" viewBox="0 0 32 32"><defs><style>.a{fill:none;}.b{fill:#354052;}</style></defs><title>format</title><rect class="a" width="32" height="32"/><path class="b" d="M26,15H22a2,2,0,0,1-2-2V4a4,4,0,0,0-8,0v9a2,2,0,0,1-2,2H6a2,2,0,0,0-2,2V32l2-1,2,1,2-1,2,1,2-1,2,1,2-1,2,1,2-1,2,1,2-1,2,1V17A2,2,0,0,0,26,15Zm.5,10.875-21-1.75V22h21ZM5.5,20.5V17a.5.5,0,0,1,.5-.5h4A3.5,3.5,0,0,0,13.5,13V4a2.5,2.5,0,0,1,5,0v9A3.5,3.5,0,0,0,22,16.5h4a.5.5,0,0,1,.5.5v3.5Z"/></svg>