<svg xmlns="http://www.w3.org/2000/svg" width="32" height="32" viewBox="0 0 32 32"><defs><style>.a{fill:#354052;fill-rule:evenodd;}.b{fill:none;}</style></defs><title>group</title><path class="a" d="M16.037,14A4,4,0,1,0,12,10.039,4,4,0,0,0,16.037,14ZM9.964,16A4,4,0,1,0,14,19.963,4,4,0,0,0,9.964,16Zm12,0A4,4,0,1,0,26,19.963,4,4,0,0,0,21.963,16ZM17.827,2.121l.26-1.982a16,16,0,0,0-4.176,0l.26,1.983A14.159,14.159,0,0,1,17.827,2.121Zm-7.184.947L9.879,1.22a15.907,15.907,0,0,0-3.62,2.085L7.477,4.892A13.961,13.961,0,0,1,10.643,3.068ZM4.812,7.586l-1.6-1.2a16.039,16.039,0,0,0-2.057,3.635l1.856.748A14.083,14.083,0,0,1,4.812,7.586ZM2.105,14.307.119,14.065A16,16,0,0,0,.156,18.24l1.98-.278A14,14,0,0,1,2.105,14.307Zm-.826,7.957a15.893,15.893,0,0,0,2.121,3.6l1.578-1.232a14.1,14.1,0,0,1-1.86-3.152Zm5.1,6.521a16.071,16.071,0,0,0,3.636,2.057l.75-1.854a14.116,14.116,0,0,1-3.182-1.8ZM14.3,29.9l-.24,1.985a15.962,15.962,0,0,0,4.175-.037l-.279-1.98A14.091,14.091,0,0,1,14.3,29.9Zm7.177-1.013.785,1.838a16.067,16.067,0,0,0,3.6-2.119l-1.232-1.574A14.081,14.081,0,0,1,21.481,28.883Zm5.708-4.465,1.595,1.2a15.986,15.986,0,0,0,2.057-3.636l-1.853-.748A14.213,14.213,0,0,1,27.189,24.418ZM31.842,13.76l-1.979.277A14.019,14.019,0,0,1,29.9,17.7l1.983.243A15.813,15.813,0,0,0,31.842,13.76ZM30.724,9.735A16,16,0,0,0,28.6,6.14L27.023,7.37a13.856,13.856,0,0,1,1.859,3.149ZM25.736,3.309a15.914,15.914,0,0,0-3.608-2.091l-.772,1.847a13.922,13.922,0,0,1,3.166,1.827Z"/><rect class="b" width="32" height="32"/></svg>