<svg xmlns="http://www.w3.org/2000/svg" width="32" height="32" viewBox="0 0 32 32"><defs><style>.a{fill:#354052;}.b{fill:none;}</style></defs><title>group_ungroup</title><path class="a" d="M17.827,2.121l.26-1.982a16,16,0,0,0-4.176,0l.26,1.983A14.159,14.159,0,0,1,17.827,2.121ZM4.812,7.586l-1.6-1.2a16.039,16.039,0,0,0-2.057,3.635l1.856.748A14.083,14.083,0,0,1,4.812,7.586ZM2.105,14.307.119,14.065A15.961,15.961,0,0,0,.156,18.24l1.98-.278A14,14,0,0,1,2.105,14.307Zm-.827,7.957a15.933,15.933,0,0,0,2.122,3.6l1.578-1.232a14.057,14.057,0,0,1-1.86-3.152Zm5.1,6.521a16.071,16.071,0,0,0,3.636,2.057l.75-1.854a14.116,14.116,0,0,1-3.182-1.8ZM14.3,29.9l-.24,1.985a15.962,15.962,0,0,0,4.175-.037l-.279-1.98A14.091,14.091,0,0,1,14.3,29.9Zm12.885-5.478,1.595,1.2a15.986,15.986,0,0,0,2.057-3.636l-1.854-.748A14.17,14.17,0,0,1,27.189,24.418ZM31.842,13.76l-1.98.277A13.975,13.975,0,0,1,29.9,17.7l1.983.243A15.813,15.813,0,0,0,31.842,13.76ZM30.724,9.735A16.042,16.042,0,0,0,28.6,6.14L27.023,7.37a13.856,13.856,0,0,1,1.859,3.149ZM25.735,3.309a15.886,15.886,0,0,0-3.607-2.091l-.772,1.847a13.944,13.944,0,0,1,3.166,1.827ZM9.964,16A4,4,0,1,0,14,19.963,4,4,0,0,0,9.964,16ZM26,19.963a3.988,3.988,0,0,0-7.563-1.742L16,14c.013,0,.026,0,.039,0a4,4,0,1,0-3.492-5.984L9.9,3.434c.249-.12.484-.259.743-.366L9.879,1.22c-.34.14-.672.292-1,.452L7.918.012l-1.732,1L7.15,2.671c-.305.2-.6.413-.891.634L7.477,4.892c.217-.167.46-.306.689-.461L22.1,28.569c-.21.1-.405.222-.621.314l.785,1.838c.289-.124.571-.258.85-.4l.966,1.663,1.733-1-.967-1.663c.347-.23.688-.469,1.012-.723l-1.231-1.574c-.25.2-.529.362-.794.542l-2.076-3.6c.094.006.184.027.28.026A4,4,0,0,0,26,19.963Z"/><rect class="b" width="32" height="32"/></svg>