<svg xmlns="http://www.w3.org/2000/svg" width="32" height="32" viewBox="0 0 32 32"><defs><style>.a{fill:#354052;fill-rule:evenodd;}.b{fill:none;}</style></defs><title>hamburger</title><path class="a" d="M5.832,10H26.168A1.921,1.921,0,0,0,28,8a1.92,1.92,0,0,0-1.832-2H5.832A1.92,1.92,0,0,0,4,8,1.921,1.921,0,0,0,5.832,10Zm20.336,4H5.832A1.92,1.92,0,0,0,4,16a1.921,1.921,0,0,0,1.832,2H26.168A1.921,1.921,0,0,0,28,16,1.92,1.92,0,0,0,26.168,14Zm0,8H5.832a2.008,2.008,0,0,0,0,4H26.168a2.008,2.008,0,0,0,0-4Z"/><rect class="b" width="32" height="32"/></svg>