<svg xmlns="http://www.w3.org/2000/svg" width="32" height="32" viewBox="0 0 32 32"><defs><style>.a{fill:#354052;}.b{fill:none;}</style></defs><title>help</title><path class="a" d="M16,0A16,16,0,1,0,32,16,16,16,0,0,0,16,0Zm0,30A14,14,0,1,1,30,16,14,14,0,0,1,16,30Zm-2-5h4V21H14ZM15.779,7c-3.647,0-5.7,2.427-5.779,6h3.379c.027-1.773.774-3.076,2.573-3.076a1.96,1.96,0,0,1,2.124,2.248c0,1.35-.849,1.924-1.823,2.7A5.387,5.387,0,0,0,14,19v1h3.5V18.969c.225-1.475,1.326-2.124,2.4-2.923A4.656,4.656,0,0,0,22,11.823C22,9.9,20.5,7,15.779,7Z"/><rect class="b" width="32" height="32"/></svg>