<svg xmlns="http://www.w3.org/2000/svg" width="32" height="32" viewBox="0 0 32 32"><defs><style>.a{fill:#354052;fill-rule:evenodd;}.b{fill:none;}</style></defs><title>link</title><path class="a" d="M29.434,2.565a7.5,7.5,0,0,0-10.607,0L12.818,8.574a7.5,7.5,0,0,0,0,10.608,1.5,1.5,0,0,0,2.12-2.122,4.5,4.5,0,0,1,0-6.363l6.01-6.009a4.5,4.5,0,1,1,6.364,6.363l-3.539,3.541a7.032,7.032,0,0,1,.4,3.849l5.265-5.269A7.5,7.5,0,0,0,29.434,2.565ZM17.061,12.818a1.5,1.5,0,0,0,0,2.122,4.5,4.5,0,0,1,0,6.363l-6.01,6.009a4.5,4.5,0,0,1-6.364-6.363l3.54-3.541a6.985,6.985,0,0,1-.391-3.849L2.564,18.828A7.5,7.5,0,0,0,13.172,29.435l6.01-6.009a7.5,7.5,0,0,0,0-10.608A1.5,1.5,0,0,0,17.061,12.818Z"/><rect class="b" width="32" height="32"/></svg>