<svg xmlns="http://www.w3.org/2000/svg" width="32" height="32" viewBox="0 0 32 32"><defs><style>.a{fill:none;}.b{fill:#354052;fill-rule:evenodd;}</style></defs><title>logout</title><rect class="a" width="32" height="32"/><path class="b" d="M18,16a2,2,0,0,1-4,0V2a2,2,0,0,1,4,0ZM16,32A14,14,0,0,0,23.68,6.292a1.616,1.616,0,0,0-2.086.332,1.5,1.5,0,0,0,.5,2.218A11.4,11.4,0,0,1,27,18,11,11,0,0,1,5,18,11.4,11.4,0,0,1,9.9,8.842a1.5,1.5,0,0,0,.5-2.218A1.616,1.616,0,0,0,8.32,6.292,14,14,0,0,0,16,32"/></svg>