<svg xmlns="http://www.w3.org/2000/svg" width="32" height="32" viewBox="0 0 32 32"><defs><style>.a{fill:none;}.b{fill:#354052;}</style></defs><title>phone</title><rect class="a" width="32" height="32"/><path class="b" d="M6.827,2.462a2.469,2.469,0,0,1,.9.175c1.6.606,2.956,3.006,3.264,4.174a2.132,2.132,0,0,1-.571,2.047c-.349.348-.691.509-1.78.548l-2.463.081.085,2.462c.087,2.462,1.63,5.015,5.158,8.536,3.543,3.546,6.112,5.1,8.595,5.214l2.486.112.086-2.487c.042-1.166.241-1.457.542-1.755a2.209,2.209,0,0,1,1.53-.644,2.056,2.056,0,0,1,.52.067c1.17.308,3.564,1.656,4.175,3.265.551,1.437-.156,2.471-1.957,4.261l-.185.188a18.2,18.2,0,0,1-5.206.817c-4.443,0-8.717-2.118-13.075-6.47C2.947,17.074,1.255,11.608,3.275,4.786l.011-.01.2-.2c1.227-1.235,2.186-2.112,3.34-2.112M6.827,0C4.557,0,2.993,1.574,1.736,2.839l-.207.214L1.1,3.485l-.177.592C-1.365,11.788.568,18.18,7.187,24.8c4.847,4.843,9.693,7.192,14.818,7.192a20.61,20.61,0,0,0,5.906-.921L28.5,30.9l.434-.43.21-.212c1.484-1.469,3.721-3.693,2.51-6.867-1.034-2.717-4.39-4.385-5.86-4.77a4.318,4.318,0,0,0-1.136-.151,4.676,4.676,0,0,0-3.269,1.358,4.584,4.584,0,0,0-1.269,3.418c-1.784-.079-3.947-1.48-6.966-4.5-3.437-3.436-4.379-5.439-4.433-6.88A4.626,4.626,0,0,0,12.159,10.6a4.619,4.619,0,0,0,1.219-4.413C12.986,4.721,11.312,1.363,8.6.334A4.93,4.93,0,0,0,6.827,0Z"/></svg>