<svg xmlns="http://www.w3.org/2000/svg" width="32" height="32" viewBox="0 0 32 32"><defs><style>.a{fill:none;}.b{fill:#354052;}</style></defs><title>planogram</title><rect class="a" width="32" height="32"/><path class="b" d="M30,0V11.494H26.983V3.035H17.912v8.459H14.088V1H5.017V11.494H2V0H0V32H2V27.8H30V32h2V0ZM19.912,5.035h5.071V7.247H19.912Zm0,4.247h5.071v2.212H19.912ZM7.017,3h5.071v8.494H7.017ZM5.573,25.8V21.5h4.3v4.3Zm10.857,0V24h3.187v1.8ZM30,25.8H28.428V23.127A2.116,2.116,0,0,0,27.3,21.261v-2.3h-2v2.3a2.117,2.117,0,0,0-1.126,1.866V25.8H21.617V22H14.43v3.8H11.872V19.5h-8.3v6.3H2v-12.3H30Z"/></svg>