<svg xmlns="http://www.w3.org/2000/svg" width="32" height="32" viewBox="0 0 32 32"><defs><style>.a{fill:none;}.b{fill:#354052;}</style></defs><title>powerpoint</title><rect class="a" width="32" height="32"/><path class="b" d="M24,0H2V32H30V6ZM23,2V7h5V18H22.921A8,8,0,1,0,9.079,18H4V2ZM20.463,18H14.42L17,14.315V8.09A5.987,5.987,0,0,1,20.463,18ZM9.022,20.43a3.549,3.549,0,0,1,1.368.234,2.538,2.538,0,0,1,.918.618,2.377,2.377,0,0,1,.516.876,3.27,3.27,0,0,1,0,2.033,2.378,2.378,0,0,1-.516.883,2.548,2.548,0,0,1-.918.617,3.55,3.55,0,0,1-1.368.235H7.042V29H5.158V20.43Zm-.516,4.031a3.946,3.946,0,0,0,.624-.047,1.444,1.444,0,0,0,.528-.186,1.012,1.012,0,0,0,.366-.391,1.645,1.645,0,0,0,0-1.319,1.019,1.019,0,0,0-.366-.391,1.488,1.488,0,0,0-.528-.186,4.068,4.068,0,0,0-.624-.047H7.042v2.567Zm8.52-4.031a3.549,3.549,0,0,1,1.368.234,2.538,2.538,0,0,1,.918.618,2.377,2.377,0,0,1,.516.876,3.27,3.27,0,0,1,0,2.033,2.378,2.378,0,0,1-.516.883,2.548,2.548,0,0,1-.918.617,3.55,3.55,0,0,1-1.368.235h-1.98V29H13.162V20.43Zm-.516,4.031a3.946,3.946,0,0,0,.624-.047,1.444,1.444,0,0,0,.528-.186,1.012,1.012,0,0,0,.366-.391,1.645,1.645,0,0,0,0-1.319,1.019,1.019,0,0,0-.366-.391,1.488,1.488,0,0,0-.528-.186,4.068,4.068,0,0,0-.624-.047H15.046v2.567Zm3.984-2.447V20.43h7.02v1.584H24.946V29H23.062V22.014Z"/></svg>