<svg xmlns="http://www.w3.org/2000/svg" width="32" height="32" viewBox="0 0 32 32"><defs><style>.a{fill:none;}.b{fill:#354052;fill-rule:evenodd;}</style></defs><title>products</title><rect class="a" width="32" height="32"/><path class="b" d="M5,6.291a1,1,0,0,1-.717.958A6,6,0,0,0,0,13V29a3,3,0,0,0,3,3H13a3,3,0,0,0,3-3V13a6,6,0,0,0-4.283-5.751A1,1,0,0,1,11,6.291V6a1,1,0,0,0,1-1V1a1,1,0,0,0-1-1H5A1,1,0,0,0,4,1V5A1,1,0,0,0,5,6ZM14,29a1,1,0,0,1-1,1H3a1,1,0,0,1-1-1V26H14Zm0-15H2V13A4,4,0,0,1,4.857,9.166,3,3,0,0,0,7,6.291V6H9v.291a3,3,0,0,0,2.143,2.875A4,4,0,0,1,14,13Z"/><path class="b" d="M18,2V32H32V2ZM30,30H20V26H30Zm0-14H20V13H30Zm0-5H20V9H30Zm0-4H20V4H30Z"/></svg>