<svg xmlns="http://www.w3.org/2000/svg" width="32" height="32" viewBox="0 0 32 32"><defs><style>.a{fill:none;}.b{fill:#354052;}</style></defs><title>quick_start</title><rect class="a" width="32" height="32"/><path class="b" d="M20.091,2l-3.755,9.753L25,9.875,9.455,30l3.662-12.828L7,18.625,12.728,3.75,20.091,2M25,9.875h0M20.091,0a2.03,2.03,0,0,0-.462.054L12.265,1.8a2,2,0,0,0-1.4,1.227L5.134,17.906A2,2,0,0,0,7,20.625a2.032,2.032,0,0,0,.463-.054l2.793-.664L7.532,29.451a2,2,0,0,0,3.506,1.772l15.5-20.071a2,2,0,0,0-1.494-3.277H25c-.047,0-.094,0-.141,0a2.054,2.054,0,0,0-.325.049l-5,1.084,2.424-6.294A2,2,0,0,0,20.091,0Zm0,4h0Z"/></svg>