<svg xmlns="http://www.w3.org/2000/svg" width="32" height="32" viewBox="0 0 32 32"><defs><style>.a{fill:none;}.b{fill:#354052;}</style></defs><title>rules</title><rect class="a" width="32" height="32"/><path class="b" d="M11.711,14.092,9.414,25.08q-.316,1.581-.668,2.846A6.686,6.686,0,0,1,7.729,30.1a4.307,4.307,0,0,1-1.793,1.4A7.442,7.442,0,0,1,2.985,32a12.982,12.982,0,0,1-1.545-.088Q.7,31.825,0,31.754L.667,28.7a6.884,6.884,0,0,0,1.545.14,3.487,3.487,0,0,0,1.564-.28,2.056,2.056,0,0,0,.843-.79,3.863,3.863,0,0,0,.439-1.2q.141-.684.351-1.492l2.3-10.988H3.721l.6-2.987H8.3c.211-1.053,1.3-6.187,1.531-7.031A6.689,6.689,0,0,1,10.854,1.9,4.307,4.307,0,0,1,12.646.491,7.459,7.459,0,0,1,15.6,0a13,13,0,0,1,1.546.088q.736.087,1.44.158L17.914,3.3a6.924,6.924,0,0,0-1.545-.141,3.486,3.486,0,0,0-1.563.281,2.049,2.049,0,0,0-.843.79,3.879,3.879,0,0,0-.439,1.2c-.094.456-1.075,5.139-1.215,5.677h4.939L19,12.857a9,9,0,0,0,0,12.729L17.585,27A11,11,0,0,1,15.63,14.092ZM28.777,27a11,11,0,0,0,0-15.555l-1.414,1.414a9,9,0,0,1,0,12.728Zm-5.6-9.413-2.828-2.829L18.94,16.171,21.768,19,18.94,21.828l1.414,1.414,2.828-2.828,2.828,2.828,1.414-1.414L24.6,19l2.828-2.829L26.01,14.757Z"/></svg>