<svg xmlns="http://www.w3.org/2000/svg" width="32" height="32" viewBox="0 0 32 32"><defs><style>.a{fill:none;}.b{fill:#354052;}</style></defs><title>save_as_default</title><rect class="a" width="32" height="32"/><polygon class="b" points="28.464 2 15.16 15.304 10.856 11 7.322 14.536 11.624 18.84 15.16 22.376 18.696 18.84 32 5.536 28.464 2"/><path class="b" d="M20.518,7.118l-.426-.248c-.109-.054-.384-.169-.507-.215l-1.16-.27-.274-1.228-.684-3.074a13.006,13.006,0,0,0-2.934,0l-.685,3.076-.265,1.192-1.146.3c-.116.039-.391.151-.51.206l-1.011.63L9.854,6.812,7.2,5.122A12.942,12.942,0,0,0,5.122,7.2l1.69,2.657.084.133.063.145.4.93-.492.846c-.054.109-.169.383-.215.507l-.27,1.16-1.228.274-3.074.684a13.006,13.006,0,0,0,0,2.934l3.074.684.152.034.144.057.948.371.249.95c.04.115.152.391.207.51l.629,1.012-.674,1.061L5.122,24.8A13.052,13.052,0,0,0,7.2,26.878l2.657-1.69.123-.078.132-.059.94-.421.859.5c.109.054.384.169.507.215l1.16.27.274,1.228.684,3.074a13.006,13.006,0,0,0,2.934,0l.684-3.074.029-.131.047-.125.36-.981.975-.256c.116-.04.392-.152.511-.207l1.011-.63,1.062.675,2.657,1.69A12.942,12.942,0,0,0,26.878,24.8l-1.69-2.657-.061-.1-.049-.1-.469-.963.521-.893c.054-.11.169-.384.215-.507l.27-1.16,1.228-.274,3.074-.684A14.461,14.461,0,0,0,30,16a14.461,14.461,0,0,0-.083-1.467l-3.074-.684-.152-.034-.1-.04,1.662-1.662,3.441.766A17.3,17.3,0,0,1,32,16a17.3,17.3,0,0,1-.308,3.121l-4.415.983a6.816,6.816,0,0,1-.4.966v0L29.3,24.889a17.308,17.308,0,0,1-1.99,2.425A17.3,17.3,0,0,1,24.889,29.3l-3.816-2.427a6.849,6.849,0,0,1-.969.4v0l-.983,4.416A17.387,17.387,0,0,1,16,32a17.387,17.387,0,0,1-3.121-.307L11.9,27.277a6.816,6.816,0,0,1-.966-.4h0L7.111,29.3a17.3,17.3,0,0,1-2.424-1.989A17.308,17.308,0,0,1,2.7,24.889l2.427-3.816a6.849,6.849,0,0,1-.4-.969h0L.308,19.121A17.3,17.3,0,0,1,0,16a17.3,17.3,0,0,1,.308-3.121L4.723,11.9a6.816,6.816,0,0,1,.4-.966v0L2.7,7.111a17.308,17.308,0,0,1,1.99-2.425A17.3,17.3,0,0,1,7.111,2.7l3.816,2.427a6.849,6.849,0,0,1,.969-.4L12.879.307A17.387,17.387,0,0,1,16,0a17.387,17.387,0,0,1,3.121.307L20.1,4.723a11.657,11.657,0,0,1,1.925.9Z"/></svg>