<svg xmlns="http://www.w3.org/2000/svg" width="32" height="32" viewBox="0 0 32 32"><defs><style>.a{fill:none;}.b{fill:#354052;}</style></defs><title>scatterplot</title><rect class="a" x="0.034" y="0.034" width="31.966" height="31.966"/><path class="b" d="M23.75,21.946A2.054,2.054,0,1,1,21.7,19.892h0A2.054,2.054,0,0,1,23.75,21.946ZM32,15H17V0H15V15H0v2H15V32h2V17H32ZM9.7,20.892a2.054,2.054,0,1,0,2.054,2.054h0A2.055,2.055,0,0,0,9.7,20.892Zm15-18A2.054,2.054,0,1,0,26.75,4.95v0A2.054,2.054,0,0,0,24.7,2.892Zm-18,6A2.054,2.054,0,1,0,8.75,10.95v0A2.054,2.054,0,0,0,6.7,8.892Zm20,16.3a2.054,2.054,0,1,1,0,.008Z"/></svg>