<svg xmlns="http://www.w3.org/2000/svg" width="32" height="32" viewBox="0 0 32 32"><defs><style>.a{fill:none;}.b{fill:#354052;}</style></defs><title>settings</title><rect class="a" width="32" height="32"/><path class="b" d="M31.693,19.121A17.387,17.387,0,0,0,32,16a17.387,17.387,0,0,0-.307-3.121L27.277,11.9h0a6.849,6.849,0,0,0-.4-.969L29.3,7.111a17.373,17.373,0,0,0-1.989-2.425A17.373,17.373,0,0,0,24.889,2.7L21.073,5.124h0a6.816,6.816,0,0,0-.966-.4L19.121.307A17.387,17.387,0,0,0,16,0a17.387,17.387,0,0,0-3.121.307L11.9,4.725a6.849,6.849,0,0,0-.969.4L7.111,2.7A17.373,17.373,0,0,0,4.686,4.686,17.373,17.373,0,0,0,2.7,7.111l2.427,3.816v0a6.816,6.816,0,0,0-.4.966l-4.415.983A17.3,17.3,0,0,0,0,16a17.3,17.3,0,0,0,.308,3.121l4.415.983h0a6.849,6.849,0,0,0,.4.969L2.7,24.889a17.373,17.373,0,0,0,1.989,2.425A17.373,17.373,0,0,0,7.111,29.3l3.816-2.427h0a6.816,6.816,0,0,0,.966.4l.983,4.416A17.387,17.387,0,0,0,16,32a17.387,17.387,0,0,0,3.121-.307l.983-4.416v0a6.849,6.849,0,0,0,.969-.4L24.889,29.3a17.373,17.373,0,0,0,2.425-1.989A17.373,17.373,0,0,0,29.3,24.889l-2.427-3.816v0a6.7,6.7,0,0,0,.4-.966Zm-6.615,2.827.049.1.061.1,1.69,2.657A12.834,12.834,0,0,1,24.8,26.878l-2.657-1.69-1.062-.675-1.011.63c-.119.055-.395.167-.51.207l-.976.256-.36.981-.047.125-.029.131-.684,3.074a13.006,13.006,0,0,1-2.934,0l-.684-3.074-.274-1.228-1.16-.27c-.123-.046-.4-.161-.507-.215l-.859-.5-.94.421-.132.059-.123.078L7.2,26.878A14.053,14.053,0,0,1,6.1,25.9a13.872,13.872,0,0,1-.979-1.1l1.69-2.657.674-1.061-.628-1.012c-.056-.119-.168-.395-.207-.51l-.25-.95-.948-.371-.144-.057-.152-.034-3.074-.684A14.461,14.461,0,0,1,2,16a14.461,14.461,0,0,1,.083-1.467l3.074-.684,1.228-.274.27-1.16c.046-.124.161-.4.215-.507l.493-.846-.4-.93L6.9,9.987l-.084-.133L5.122,7.2A14.074,14.074,0,0,1,6.1,6.1a14.446,14.446,0,0,1,1.1-.978l2.657,1.69,1.062.675,1.011-.63c.119-.055.394-.167.51-.206l1.146-.3.265-1.192.685-3.076a13.006,13.006,0,0,1,2.934,0l.684,3.074.274,1.228,1.16.27c.123.046.4.161.507.215l.859.5.94-.421.132-.059.123-.078L24.8,5.122A12.942,12.942,0,0,1,26.878,7.2l-1.69,2.657-.674,1.061.628,1.012c.056.119.168.395.208.51l.249.95.948.371.145.057.151.034,3.074.684A14.461,14.461,0,0,1,30,16a14.461,14.461,0,0,1-.083,1.467l-3.074.684-1.228.274-.27,1.16c-.045.123-.161.4-.214.507l-.522.893Z"/><path class="b" d="M16,9a7,7,0,1,0,7,7A7,7,0,0,0,16,9Zm0,12a5,5,0,1,1,5-5A5.006,5.006,0,0,1,16,21Z"/></svg>