<svg xmlns="http://www.w3.org/2000/svg" width="32" height="32" viewBox="0 0 32 32"><defs><style>.a{fill:none;}.b{fill:#354052;}</style></defs><title>share</title><rect class="a" width="32" height="32"/><path class="b" d="M25,20a4.974,4.974,0,0,0-3.616,1.562L11.823,16.25a4.5,4.5,0,0,0,0-2.5l9.562-5.311A4.989,4.989,0,1,0,20,5a4.964,4.964,0,0,0,.177,1.25l-9.562,5.312a5,5,0,1,0,0,6.877l9.562,5.312A4.949,4.949,0,0,0,20,25a5,5,0,1,0,5-5ZM25,2a3,3,0,1,1-3,3A3,3,0,0,1,25,2ZM7,18a3,3,0,1,1,3-3A3,3,0,0,1,7,18ZM25,28a3,3,0,1,1,3-3A3,3,0,0,1,25,28Z"/></svg>