<svg xmlns="http://www.w3.org/2000/svg" width="32" height="32" viewBox="0 0 32 32"><defs><style>.a{fill:none;}.b{fill:#354052;}</style></defs><title>tools</title><rect class="a" width="32" height="32"/><rect class="a" width="32" height="32"/><path class="b" d="M21.992,2.014a1.508,1.508,0,0,1,.645.141L19.589,5.2l-.571.572L19,6.582l-.077,4.458-.035,2.07,2.07-.036L25.419,13l.808-.014.571-.571,3.047-3.048a1.536,1.536,0,0,1,.112.935,10.89,10.89,0,0,1-2.682,5.9,5.941,5.941,0,0,1-4.787,1.863,20.878,20.878,0,0,1-4-.466l-1.05-.211-.758.758L5.414,29.414a2,2,0,1,1-2.828-2.828L13.861,15.32l.758-.758-.211-1.051c-1.141-5.682.009-7.4,1.4-8.786a10.893,10.893,0,0,1,5.9-2.682,1.47,1.47,0,0,1,.29-.029m0-2a3.452,3.452,0,0,0-.682.068A12.72,12.72,0,0,0,14.391,3.31c-2.024,2.024-3.171,4.487-1.944,10.6L1.172,25.172a4,4,0,1,0,5.656,5.656L18.1,19.553a22.574,22.574,0,0,0,4.393.5,7.892,7.892,0,0,0,6.2-2.449,12.7,12.7,0,0,0,3.229-6.919c.348-1.738-.7-3.518-2.015-3.518a1.892,1.892,0,0,0-1.33.635L25.384,11l-4.458.077L21,6.617l3.19-3.19C25.818,1.8,24.047.014,21.992.014Z"/></svg>