<svg xmlns="http://www.w3.org/2000/svg" width="32" height="32" viewBox="0 0 32 32"><defs><style>.a{fill:#354052;}.b{fill:none;}</style></defs><title>user_group</title><path class="a" d="M27.343,8.729l.007-.018a5,5,0,1,0-7.8-5.991,7.831,7.831,0,0,1,1.744.987,3,3,0,1,1,3.163,4.258,7.37,7.37,0,0,1,.493,2.11A6,6,0,0,1,30,16V26a2,2,0,0,0,2-2V16A8,8,0,0,0,27.343,8.729Zm-19.8-.764A3,3,0,1,1,10.71,3.707a7.742,7.742,0,0,1,1.741-.987,5,5,0,1,0-7.8,5.991l.007.018A8,8,0,0,0,0,16v8a2,2,0,0,0,2,2V16a6,6,0,0,1,5.051-5.925A7.37,7.37,0,0,1,7.544,7.965Zm12.815,7.16a6,6,0,1,0-8.718,0A9,9,0,0,0,7,23v6a3,3,0,0,0,3,3h3.5V25a1,1,0,0,0-2,0v4H10V23a6,6,0,0,1,12,0v6H20.5V25a1,1,0,0,0-2,0v7H22a3,3,0,0,0,3-3V23A8.991,8.991,0,0,0,20.359,15.125ZM16,14a3,3,0,1,1,3-3A3,3,0,0,1,16,14Z"/><rect class="b" width="32" height="32"/></svg>