<svg xmlns="http://www.w3.org/2000/svg" width="32" height="32" viewBox="0 0 32 32"><defs><style>.a{fill:#354052;fill-rule:evenodd;}.b{fill:none;}</style></defs><title>view_hide_fill</title><path class="a" d="M5.448,1.6,8.091,6.171A15.532,15.532,0,0,0,0,16c1.515,6.352,8.142,11.77,16.007,11.77a17.07,17.07,0,0,0,4.246-.537l2.7,4.673,2.6-1.5L8.046.1Zm6.035,10.454,5.682,9.838a6,6,0,0,1-5.682-9.838ZM16.007,4.23a17.018,17.018,0,0,0-2.032.122L25.744,24.736A15.078,15.078,0,0,0,32,16C30.483,9.648,23.874,4.23,16.007,4.23Z"/><rect class="b" width="32" height="32"/></svg>