<svg xmlns="http://www.w3.org/2000/svg" width="32" height="32" viewBox="0 0 32 32"><defs><style>.a{fill:#354052;fill-rule:evenodd;}.b{fill:none;}</style></defs><title>view_hide</title><path class="a" d="M21.991,16a5.951,5.951,0,0,0-.094-1.068,3.98,3.98,0,0,1-3.527,3.052l-3.638-6.291a4.015,4.015,0,0,1,2.415-1.582A6.131,6.131,0,0,0,15.991,10a5.99,5.99,0,0,0-2.035.354L8.037.1l-2.6,1.5L8.086,6.172A15.5,15.5,0,0,0,0,16c1.515,6.352,8.132,11.77,16,11.77a17.077,17.077,0,0,0,4.241-.536l2.7,4.672,2.6-1.5-5.672-9.824A5.973,5.973,0,0,0,21.991,16ZM16,25.77c-5.7,0-12.485-3.418-14-9.77A12.407,12.407,0,0,1,9.044,7.838l2.432,4.213A6,6,0,0,0,15.991,22a6.11,6.11,0,0,0,1.164-.112l2.045,3.54A15.652,15.652,0,0,1,16,25.77ZM16,4.23a17.048,17.048,0,0,0-2.044.123L15.063,6.26q.472-.03.937-.03c5.7,0,12.483,3.418,14,9.77a11.854,11.854,0,0,1-5.2,7.125l.933,1.617A15.116,15.116,0,0,0,32,16C30.483,9.648,23.866,4.23,16,4.23Z"/><rect class="b" width="32" height="32"/></svg>