<svg xmlns="http://www.w3.org/2000/svg" width="32" height="32" viewBox="0 0 32 32"><defs><style>.a{fill:none;}.b{fill:#354052;stroke:#e9e9e9;stroke-miterlimit:3.864;stroke-width:0.2px;fill-rule:evenodd;}</style></defs><title>alert</title><rect class="a" width="32" height="32"/><path class="b" d="M11.953,2.543l-.131-.387a1.453,1.453,0,0,0-.168-.3c-.649-.893-3.5-1.165-5.646.394S3.238,6.6,3.888,7.5a1.479,1.479,0,0,0,.236.252l.328.244a15.01,15.01,0,0,1,7.5-5.449ZM24.229,4.674a14.955,14.955,0,0,0-4.182-2.131l.131-.387a1.453,1.453,0,0,1,.168-.3c.649-.893,3.5-1.165,5.646.394s2.77,4.356,2.12,5.25a1.479,1.479,0,0,1-.236.252l-.328.244A14.923,14.923,0,0,0,24.229,4.674Zm-7.2,9.6A1.95,1.95,0,0,1,18,16a1.985,1.985,0,0,1-.271,1l1.637,2.826a1,1,0,0,1-1.732,1L16,18a2,2,0,0,1-1-3.727V9a1,1,0,0,1,2,0Zm11.7,14.456a1.006,1.006,0,0,1-1.415,0l-3.568-3.571a11.974,11.974,0,0,1-15.49,0L4.687,28.729a1,1,0,0,1-1.415-1.417l3.569-3.568a12,12,0,1,1,18.318,0l3.569,3.568A1,1,0,0,1,28.728,28.729ZM26,16A10,10,0,1,0,16,26,10,10,0,0,0,26,16Z"/></svg>