<svg xmlns="http://www.w3.org/2000/svg" width="32" height="32" viewBox="0 0 32 32"><defs><style>.a{fill:#354052;fill-rule:evenodd;}.b{fill:none;}</style></defs><title>application</title><path class="a" d="M4,0A4,4,0,1,0,8,4,4,4,0,0,0,4,0ZM4,12a4,4,0,1,0,4,4A4,4,0,0,0,4,12ZM4,24a4,4,0,1,0,4,4A4,4,0,0,0,4,24ZM16,0a4,4,0,1,0,4,4A4,4,0,0,0,16,0Zm0,12a4,4,0,1,0,4,4A4,4,0,0,0,16,12Zm0,12a4,4,0,1,0,4,4A4,4,0,0,0,16,24ZM28,8a4,4,0,1,0-4-4A4,4,0,0,0,28,8Zm0,4a4,4,0,1,0,4,4A4,4,0,0,0,28,12Zm0,12a4,4,0,1,0,4,4A4,4,0,0,0,28,24Z"/><rect class="b" width="32" height="32"/></svg>