<svg xmlns="http://www.w3.org/2000/svg" width="32" height="32" viewBox="0 0 32 32"><defs><style>.a{fill:#354052;fill-rule:evenodd;}.b{fill:none;}</style></defs><title>calendar</title><path class="a" d="M27,2H24V0H22V2H8V0H6V2H3A3,3,0,0,0,0,5V27a3,3,0,0,0,3,3H27a3,3,0,0,0,3-3V5A3,3,0,0,0,27,2Zm0,25H3V8H27ZM8,14H6v2H8Zm0,4H6v2H8Zm0,4H6v2H8Zm4-12H10v2h2Zm0,4H10v2h2Zm0,4H10v2h2Zm0,4H10v2h2Zm4-12H14v2h2Zm0,4H14v2h2Zm0,4H14v2h2Zm0,4H14v2h2Zm4,0H18v2h2Zm0-12H18v2h2Zm0,4H18v2h2Zm0,4H18v2h2Zm4-8H22v2h2Zm0,4H22v2h2Zm0,4H22v2h2Z"/><rect class="b" width="32" height="32"/></svg>