<svg xmlns="http://www.w3.org/2000/svg" width="32" height="32" viewBox="0 0 32 32"><defs><style>.a{fill:#354052;fill-rule:evenodd;}.b{fill:none;}</style></defs><title>comment</title><path class="a" d="M23,7a6.007,6.007,0,0,0-6,6v5a1,1,0,0,0,1,1h5a1,1,0,0,0,1-1V13a1,1,0,0,0-1-1H21.27A2,2,0,0,1,23,11a1,1,0,0,0,1-1V8A1,1,0,0,0,23,7ZM14,7a6.007,6.007,0,0,0-6,6v5a1,1,0,0,0,1,1h5a1,1,0,0,0,1-1V13a1,1,0,0,0-1-1H12.27A2,2,0,0,1,14,11a1,1,0,0,0,1-1V8A1,1,0,0,0,14,7ZM28,0H4A4,4,0,0,0,0,4V22a4,4,0,0,0,4,4H8v6l6-6H28a4,4,0,0,0,4-4V4A4,4,0,0,0,28,0Zm2,22a2,2,0,0,1-2,2H13l-3,3V24H4a2,2,0,0,1-2-2V4A2,2,0,0,1,4,2H28a2,2,0,0,1,2,2Z"/><rect class="b" width="32" height="32"/></svg>