<svg xmlns="http://www.w3.org/2000/svg" width="32" height="32" viewBox="0 0 32 32"><defs><style>.a{fill:none;}.b{fill:#354052;fill-rule:evenodd;}</style></defs><title>comment_fill</title><rect class="a" width="32" height="32"/><path class="b" d="M28,0H4A4,4,0,0,0,0,4V22a4,4,0,0,0,4,4H8v6l6-6H28a4,4,0,0,0,4-4V4A4,4,0,0,0,28,0ZM15,10a1,1,0,0,1-1,1,2,2,0,0,0-1.73,1H14a1,1,0,0,1,1,1v5a1,1,0,0,1-1,1H9a1,1,0,0,1-1-1V13a6.007,6.007,0,0,1,6-6,1,1,0,0,1,1,1Zm9,0a1,1,0,0,1-1,1,2,2,0,0,0-1.73,1H23a1,1,0,0,1,1,1v5a1,1,0,0,1-1,1H18a1,1,0,0,1-1-1V13a6.007,6.007,0,0,1,6-6,1,1,0,0,1,1,1Z"/></svg>