<svg xmlns="http://www.w3.org/2000/svg" width="32" height="32" viewBox="0 0 32 32"><defs><style>.a{fill:none;}.b{fill:#354052;}</style></defs><title>database</title><rect class="a" width="32" height="32"/><path class="b" d="M16,0C8.268,0,2,3.134,2,7V25c0,3.866,6.268,7,14,7s14-3.134,14-7V7C30,3.134,23.732,0,16,0Zm0,2.25c6.075,0,11,2.127,11,4.75s-4.925,4.75-11,4.75S5,9.623,5,7,9.925,2.25,16,2.25Zm0,27.5C9.925,29.75,5,27.623,5,25V20.321A21.193,21.193,0,0,0,16,23a21.212,21.212,0,0,0,11-2.679V25C27,27.623,22.075,29.75,16,29.75Zm0-9C9.925,20.75,5,18.623,5,16V11.321A21.193,21.193,0,0,0,16,14a21.212,21.212,0,0,0,11-2.679V16C27,18.623,22.075,20.75,16,20.75Z"/></svg>