<svg xmlns="http://www.w3.org/2000/svg" width="32" height="32" viewBox="0 0 32 32"><defs><style>.a{fill:#354052;}.b{fill:none;}</style></defs><title>data_pipeline</title><path class="a" d="M27,7H24.792v.019A3.448,3.448,0,0,0,22.73,8H7.272A3.354,3.354,0,0,0,5,7c-2.761,0-5,4.029-5,9s2.239,9,5,9a3.354,3.354,0,0,0,2.272-1H22.73a3.448,3.448,0,0,0,2.062.981V25H27c2.761,0,5-4.029,5-9S29.761,7,27,7ZM21.283,22H5c-1.381,0-2.5-2.686-2.5-6S3.619,10,5,10H21.283A13.643,13.643,0,0,0,20,16,13.643,13.643,0,0,0,21.283,22ZM27,22c-1.381,0-2.5-2.686-2.5-6s1.119-6,2.5-6,2.5,2.686,2.5,6S28.381,22,27,22Z"/><rect class="b" width="32" height="32"/></svg>