<svg xmlns="http://www.w3.org/2000/svg" width="32" height="32" viewBox="0 0 32 32"><defs><style>.a{fill:none;}.b{fill:#354052;}</style></defs><title>excel</title><rect class="a" width="32" height="32"/><path class="b" d="M11,16H7V12h4ZM11,6H7v4h4ZM21,6H13v4h8Zm0,6H13v4h8Zm9-6V32H2V0H24ZM4,2V18H28V7H23V2ZM7.475,24.51,4.486,29H6.6l1.908-2.964L10.378,29h2.245L9.634,24.521l2.748-4.091H10.318L8.579,23.166,6.9,20.43H4.714Zm5.9-4.08V29h6.06V27.414H15.262V20.43Zm8.4,5.723H19.954a2.828,2.828,0,0,0,.288,1.368,2.7,2.7,0,0,0,.81.949,3.443,3.443,0,0,0,1.176.546,5.447,5.447,0,0,0,1.374.173,5.252,5.252,0,0,0,1.542-.2,3.244,3.244,0,0,0,1.116-.569,2.388,2.388,0,0,0,.678-.871,2.611,2.611,0,0,0,.228-1.091,2.1,2.1,0,0,0-.306-1.183,2.561,2.561,0,0,0-.726-.737,3.2,3.2,0,0,0-.846-.4c-.284-.084-.506-.141-.666-.173-.536-.136-.97-.249-1.3-.336a4.685,4.685,0,0,1-.78-.265.848.848,0,0,1-.378-.288.764.764,0,0,1-.1-.407.805.805,0,0,1,.12-.456,1.03,1.03,0,0,1,.306-.3,1.217,1.217,0,0,1,.414-.168,2.188,2.188,0,0,1,.456-.049,3.121,3.121,0,0,1,.64.054,1.529,1.529,0,0,1,.522.2,1.051,1.051,0,0,1,.366.4,1.508,1.508,0,0,1,.162.635h1.824A2.626,2.626,0,0,0,26.6,21.72a2.467,2.467,0,0,0-.762-.859,3.243,3.243,0,0,0-1.1-.486,5.446,5.446,0,0,0-1.29-.149,4.442,4.442,0,0,0-1.152.155,3.264,3.264,0,0,0-1.032.48,2.577,2.577,0,0,0-.738.81,2.25,2.25,0,0,0-.282,1.146,2.022,2.022,0,0,0,.8,1.693,3.184,3.184,0,0,0,.816.449,7.871,7.871,0,0,0,.936.294c.312.089.62.168.924.241a5.538,5.538,0,0,1,.816.252,1.745,1.745,0,0,1,.582.359.753.753,0,0,1,.222.564.831.831,0,0,1-.168.535,1.175,1.175,0,0,1-.42.33,1.924,1.924,0,0,1-.54.162,3.755,3.755,0,0,1-.54.042,2.82,2.82,0,0,1-.72-.091,1.789,1.789,0,0,1-.606-.275,1.377,1.377,0,0,1-.414-.486,1.585,1.585,0,0,1-.154-.733Z"/></svg>