<svg xmlns="http://www.w3.org/2000/svg" width="32.023" height="32" viewBox="0 0 32.023 32"><defs><style>.a{fill:none;}.b{fill:#354052;}</style></defs><title>focus</title><rect class="a" x="0.011" width="32" height="32"/><path class="a" d="M19.611,2.5a13.535,13.535,0,0,0-7.2,0,13.358,13.358,0,0,0-4.8,2.3l5.5,9.1Z"/><path class="a" d="M2.411,19.2c0,.1.1.3.1.4a14.363,14.363,0,0,0,7.2,8.9l5.7-9Z"/><path class="a" d="M29.511,12.5h0a13.915,13.915,0,0,0-8-9.3l-5.4,9.3Z"/><path class="a" d="M6.111,6.1a13.753,13.753,0,0,0-4,11.1l10.8.2Z"/><path class="a" d="M19.111,14.5l6.3,11.8a14.067,14.067,0,0,0,4.5-11.8Z"/><path class="a" d="M11.611,29.3a14.461,14.461,0,0,0,8,.3,13.036,13.036,0,0,0,4.3-2l-5.2-9.6Z"/><path class="b" d="M31.511,11.9a16.033,16.033,0,1,0-11.4,19.5A15.99,15.99,0,0,0,31.511,11.9Zm-2,.5h0l-13.3.1,5.4-9.3A13.584,13.584,0,0,1,29.511,12.4Zm-17.1-9.9a13.524,13.524,0,0,1,7.2,0l-6.6,11.4-5.4-9.1A13.358,13.358,0,0,1,12.411,2.5Zm-6.3,3.6,6.7,11.3-10.7-.2A13.753,13.753,0,0,1,6.111,6.1Zm-3.6,13.5c0-.1-.1-.3-.1-.4l13,.2-5.7,9A13.622,13.622,0,0,1,2.511,19.6Zm17.1,9.9a13.564,13.564,0,0,1-8-.3l7.1-11.2,5.1,9.6A13.468,13.468,0,0,1,19.611,29.5Zm5.8-3.2-6.3-11.8h10.8A13.673,13.673,0,0,1,25.411,26.3Z"/></svg>