<svg xmlns="http://www.w3.org/2000/svg" width="32" height="32" viewBox="0 0 32 32"><defs><style>.a{fill:none;}.b{fill:#354052;fill-rule:evenodd;}</style></defs><title>help_fill</title><rect class="a" width="32" height="32"/><path class="b" d="M16,0A16,16,0,1,0,32,16,16,16,0,0,0,16,0Zm2,25H14V21h4Zm1.9-8.954c-1.074.8-2.175,1.448-2.4,2.923V20H14V19a5.387,5.387,0,0,1,2.253-4.129c.974-.775,1.823-1.349,1.823-2.7a1.96,1.96,0,0,0-2.124-2.248c-1.8,0-2.546,1.3-2.573,3.076H10c.076-3.573,2.132-6,5.779-6C20.5,7,22,9.9,22,11.823A4.656,4.656,0,0,1,19.9,16.046Z"/></svg>