<svg xmlns="http://www.w3.org/2000/svg" width="32" height="32" viewBox="0 0 32 32"><defs><style>.a{fill:none;}.b{fill:#354052;fill-rule:evenodd;}</style></defs><title>launch</title><rect class="a" width="32" height="32"/><path class="b" d="M7.86,10H6.446L2.2,14.24.082,12.119l5.3-5.3h5.657ZM31.2.805c-5.878-2.519-12.6,1.29-16.971,5.657L7.567,13.119,10.4,15.947l8.072-8.071c3.58-3.579,7.027-4.287,9.192-3.535.752,2.165.044,5.612-3.535,9.192L16.053,21.6l2.828,2.829,6.657-6.657C29.905,13.409,33.714,6.683,31.2.805ZM22,24.14v1.414L17.76,29.8l2.121,2.121,5.3-5.3V20.958ZM7.981,18.361C5.8,20.542,5.6,23.133,4.86,24.311A2.616,2.616,0,0,0,6.981,23.6c-.176,1.473-2.237,3.062-2.06,4.182,1.65-.943,3.062-.676,4.889-2.768-.309.752.324,1.09,0,1.414.766.089,2.709-1.294,3.829-2.413Z"/></svg>