<svg xmlns="http://www.w3.org/2000/svg" width="32" height="32" viewBox="0 0 32 32"><defs><style>.a{fill:#354052;}.b{fill:none;}</style></defs><title>like</title><path class="a" d="M29.2,11H22c-1.6,0-1.6-.6-1.6-1.4a11.459,11.459,0,0,1,.535-3.2A11.55,11.55,0,0,0,22,2.4C22,.8,21.2,0,20.4,0H18c-.8,0-1.6.8-2.8,2L7.6,9.6a4.7,4.7,0,0,0-1.6,4v16A2.555,2.555,0,0,0,8.4,32H22c2.4,0,3.532-2.066,3.934-2.934s4.538-10.195,5.532-12.533C33.04,12.834,30.794,11,29.2,11Zm.427,4.75c-1.025,2.412-5.144,11.7-5.506,12.476C23.571,29.4,22.858,30,22,30H8.458c-.1-.031-.458-.189-.458-.4v-16a2.811,2.811,0,0,1,1.014-2.586L16.624,3.4A13.24,13.24,0,0,1,18.152,2h1.809A2.009,2.009,0,0,1,20,2.4a7.671,7.671,0,0,1-.7,2.663c-.1.242-.184.465-.254.664A13.353,13.353,0,0,0,18.4,9.6c0,2.256,1.212,3.4,3.6,3.4h7.2a.845.845,0,0,1,.6.395A2.664,2.664,0,0,1,29.622,15.75ZM0,30H4V14H0Z"/><rect class="b" width="32" height="32"/></svg>