<svg xmlns="http://www.w3.org/2000/svg" width="32" height="32" viewBox="0 0 32 32"><defs><style>.a{fill:#354052;}.b{fill:none;}</style></defs><title>like_fill</title><path class="a" d="M29.2,11H22c-1.6,0-1.6-.6-1.6-1.4a11.459,11.459,0,0,1,.535-3.2A11.55,11.55,0,0,0,22,2.4C22,.8,21.2,0,20.4,0H18c-.8,0-1.6.8-2.8,2L7.6,9.6a4.7,4.7,0,0,0-1.6,4v16A2.555,2.555,0,0,0,8.4,32H22c2.4,0,3.532-2.066,3.934-2.934s4.538-10.195,5.532-12.533C33.04,12.834,30.794,11,29.2,11ZM0,30H4V14H0Z"/><rect class="b" width="32" height="32"/></svg>