<svg xmlns="http://www.w3.org/2000/svg" width="32" height="32" viewBox="0 0 32 32"><defs><style>.a{fill:none;}.b{fill:#354052;}</style></defs><title>localization</title><rect class="a" width="32" height="32"/><path class="b" d="M16,0A16,16,0,1,0,32,16,16,16,0,0,0,16,0ZM29.959,15h-5.99c-.159-5.094-1.493-9.549-3.484-12.25A14.023,14.023,0,0,1,29.959,15ZM16,2c2.712,0,5.725,5.5,5.976,13H10.024C10.275,7.5,13.288,2,16,2Zm-4.485.75C9.524,5.451,8.19,9.906,8.031,15H2.041A14.023,14.023,0,0,1,11.515,2.75ZM2.041,17h5.99c.159,5.094,1.493,9.549,3.484,12.25A14.023,14.023,0,0,1,2.041,17ZM16,30c-2.712,0-5.725-5.5-5.976-13H21.976C21.725,24.5,18.712,30,16,30Zm4.485-.75c1.991-2.7,3.325-7.156,3.484-12.25h5.99A14.023,14.023,0,0,1,20.485,29.25Z"/></svg>