<svg xmlns="http://www.w3.org/2000/svg" width="32" height="32" viewBox="0 0 32 32"><defs><style>.a{fill:#354052;fill-rule:evenodd;}.b{fill:none;}</style></defs><title>lock_unlock</title><path class="a" d="M12,26a2,2,0,0,0,2-2V20a2,2,0,0,0-4,0v4A2,2,0,0,0,12,26ZM24,0a8,8,0,0,0-8,8v4H4a4,4,0,0,0-4,4V28a4,4,0,0,0,4,4H20a4,4,0,0,0,4-4V16a4,4,0,0,0-4-4H19V8A5,5,0,0,1,29,8v7h3V8A8,8,0,0,0,24,0ZM20,15a1,1,0,0,1,1,1V28a1,1,0,0,1-1,1H4a1,1,0,0,1-1-1V16a1,1,0,0,1,1-1Z"/><rect class="b" width="32" height="32"/></svg>