<svg xmlns="http://www.w3.org/2000/svg" width="32" height="32" viewBox="0 0 32 32"><defs><style>.a{fill:none;}.b{fill:#354052;}</style></defs><title>mass_edit</title><rect class="a" width="32" height="32"/><path class="b" d="M26.252,2.167a8.745,8.745,0,0,1,2.022,1.561A8.731,8.731,0,0,1,29.835,5.75L16.486,19.1,11.14,20.86,12.9,15.516,26.252,2.167M25.917,0a.686.686,0,0,0-.5.174L11.15,14.438,8,24l9.564-3.151L31.826,6.588c.59-.591-.367-2.5-2.138-4.274C28.272.9,26.765,0,25.917,0ZM8,8H0V0H8ZM6,2H2V6H6ZM8,20H0V12H8ZM6,14H2v4H6ZM8,32H0V24H8ZM6,26H2v4H6Z"/></svg>