<svg xmlns="http://www.w3.org/2000/svg" width="32" height="32" viewBox="0 0 32 32"><defs><style>.a{fill:none;}.b{fill:#354052;}</style></defs><title>new</title><rect class="a" width="32" height="32"/><path class="b" d="M16,8a2,2,0,0,0,2-2V2a2,2,0,0,0-4,0V6A2,2,0,0,0,16,8Zm0,16a2,2,0,0,0-2,2v4a2,2,0,0,0,4,0V26A2,2,0,0,0,16,24ZM30,14H26a2,2,0,0,0,0,4h4a2,2,0,0,0,0-4ZM8,16a2,2,0,0,0-2-2H2a2,2,0,0,0,0,4H6A2,2,0,0,0,8,16Zm-.486-5.658a2,2,0,1,0,2.828-2.828L7.514,4.686A2,2,0,0,0,4.686,7.514ZM24.485,21.656a2,2,0,1,0-2.828,2.828l2.828,2.828a2,2,0,1,0,2.828-2.828Zm0-11.312,2.828-2.832a2,2,0,1,0-2.828-2.828L21.657,7.516a2,2,0,1,0,2.828,2.828ZM7.516,21.656,4.684,24.484a2,2,0,1,0,2.828,2.828l2.832-2.828a2,2,0,0,0-2.828-2.828ZM16,10a6,6,0,1,0,6,6A6,6,0,0,0,16,10Zm0,9a3,3,0,1,1,3-3A3,3,0,0,1,16,19Z"/></svg>