<svg xmlns="http://www.w3.org/2000/svg" width="32" height="32" viewBox="0 0 32 32"><defs><style>.a{fill:none;}.b{fill:#354052;}</style></defs><title>pdf</title><rect class="a" width="32" height="32"/><path class="b" d="M24,0H2V32H30V6Zm4,18H24V10H20v8H18V6H14V18H12V8H8V18H4V2H23V7h5ZM8.686,20.43a3.549,3.549,0,0,1,1.368.234,2.538,2.538,0,0,1,.918.618,2.377,2.377,0,0,1,.516.876,3.27,3.27,0,0,1,0,2.033,2.378,2.378,0,0,1-.516.883,2.548,2.548,0,0,1-.918.617,3.55,3.55,0,0,1-1.368.235H6.706V29H4.822V20.43ZM8.17,24.461a3.946,3.946,0,0,0,.624-.047,1.444,1.444,0,0,0,.528-.186,1.012,1.012,0,0,0,.366-.391,1.645,1.645,0,0,0,0-1.319,1.019,1.019,0,0,0-.366-.391,1.488,1.488,0,0,0-.528-.186,4.068,4.068,0,0,0-.624-.047H6.706v2.567Zm8.352-4.031a4.449,4.449,0,0,1,1.542.263,3.369,3.369,0,0,1,1.236.792,3.657,3.657,0,0,1,.816,1.321,5.325,5.325,0,0,1,.294,1.86,5.908,5.908,0,0,1-.24,1.728,3.818,3.818,0,0,1-.726,1.368,3.388,3.388,0,0,1-1.212.905,4.085,4.085,0,0,1-1.71.331h-3.7V20.43Zm-.132,6.984a2.424,2.424,0,0,0,.792-.132,1.747,1.747,0,0,0,.684-.438,2.2,2.2,0,0,0,.48-.8,3.518,3.518,0,0,0,.18-1.2,5.005,5.005,0,0,0-.126-1.17,2.337,2.337,0,0,0-.414-.894,1.839,1.839,0,0,0-.762-.571,3.074,3.074,0,0,0-1.17-.2H14.71v5.4ZM27.742,20.43v1.584H23.6v1.98h3.59v1.464H23.6V29H21.718V20.43Z"/></svg>