<svg xmlns="http://www.w3.org/2000/svg" width="32" height="32" viewBox="0 0 32 32"><defs><style>.a{fill:none;}.b{fill:#354052;}</style></defs><title>pin</title><rect class="a" width="32" height="32"/><path class="b" d="M9.639,11.28a7.878,7.878,0,0,1,5.5-.432l1.779.623,7.244-7.243,3.787,3.788-7.243,7.243.623,1.78a7.878,7.878,0,0,1-.431,5.5ZM24.187.357a1.451,1.451,0,0,0-.946.549l-7.109,7.11A9.241,9.241,0,0,0,13.1,7.539a10.1,10.1,0,0,0-6.922,2.523,1.685,1.685,0,0,0,0,2l4.907,4.907L.178,32,15.21,21.094,20.116,26a1.561,1.561,0,0,0,1.036.33,1.367,1.367,0,0,0,.964-.33c2.344-2.344,3.125-6.875,2.047-9.953l7.109-7.11c.86-.859.594-1.25,0-1.843L25.085.906c-.324-.323-.587-.549-.9-.549Z"/></svg>