<svg xmlns="http://www.w3.org/2000/svg" width="32" height="32" viewBox="0 0 32 32"><defs><style>.a{fill:none;}.b{fill:#354052;}</style></defs><title>project_elements</title><rect class="a" width="32" height="32"/><path class="b" d="M18.083,2l-.041,1.958L18,6c0,5.266,1.687,9.661,5.468,14.251H8.532C12.313,15.661,14,11.266,14,5.958l-.042-2L13.917,2h4.166m1.959-2H11.958a2,2,0,0,0,0,4L12,6c0,5.309-1.88,9.179-5.012,12.979C2.953,23.877,2,25.25,2,28a4,4,0,0,0,4,4H26a4,4,0,0,0,4-4c0-2.75-.953-4.123-4.988-9.021C21.88,15.179,20,11.309,20,6l.042-2a2,2,0,0,0,0-4Z"/></svg>