<svg xmlns="http://www.w3.org/2000/svg" width="32" height="32" viewBox="0 0 32 32"><defs><style>.a{fill:none;}.b{fill:#354052;fill-rule:evenodd;}</style></defs><title>refresh_in_progress</title><rect class="a" width="32" height="32"/><path class="b" d="M3.441,8.748A14.5,14.5,0,0,1,27,6.553V0h3V12H18V9l7.131.008A11.5,11.5,0,0,0,6.039,10.249Zm-1.447,3.5a14.505,14.505,0,0,0-.274,6.27L4.675,18a11.488,11.488,0,0,1,.217-4.973Zm.865,9.88a14.508,14.508,0,0,0,2.888,4.126l2.121-2.122A11.279,11.279,0,0,1,5.577,20.86Zm5.891,6.43a14.388,14.388,0,0,0,3.5,1.448l.777-2.9a11.424,11.424,0,0,1-2.774-1.149ZM16,30.5a14.549,14.549,0,0,0,3.262-.372l-.675-2.923A11.545,11.545,0,0,1,16,27.5Z"/></svg>