<svg xmlns="http://www.w3.org/2000/svg" width="32" height="32" viewBox="0 0 32 32"><defs><style>.a{fill:none;}.b{fill:#354052;}</style></defs><title>retail_collaboration</title><rect class="a" width="32" height="32"/><path class="b" d="M32,12a4.5,4.5,0,0,0-2.321-3.938,3,3,0,1,0-4.359,0A4.5,4.5,0,0,0,23,12v2.5A1.5,1.5,0,0,0,24.5,16h2V13a.5.5,0,0,0-1,0v1.5h-1V12a3,3,0,0,1,6,0v2.5h-1V13a.5.5,0,0,0-1,0v3h1.45a3.488,3.488,0,0,1-6.075,1.814h0a3.5,3.5,0,0,1-5.25,0,3.495,3.495,0,0,1-5.249,0,3.5,3.5,0,0,1-5.25,0h0a3.5,3.5,0,0,1-6.107-1.956L5.251,8H15V6H4L0,15.5a5.5,5.5,0,0,0,4.077,5.308V32h24V20.768A5.5,5.5,0,0,0,32,15.5ZM27.5,7.5A1.5,1.5,0,1,1,29,6,1.5,1.5,0,0,1,27.5,7.5ZM17.077,20.883a5.444,5.444,0,0,0,1.547-.551A5.459,5.459,0,0,0,21.249,21a5.516,5.516,0,0,0,.828-.069V26h-5Zm-7,.074A5.526,5.526,0,0,0,10.75,21a5.459,5.459,0,0,0,2.625-.668,5.444,5.444,0,0,0,1.7.581V26h-5Zm16,9.043h-20V20.963a5.446,5.446,0,0,0,2-.608V28h16V20.427a5.433,5.433,0,0,0,2,.546Z"/><path class="b" d="M17.5,13h2V10a.5.5,0,0,0-1,0v1.5h-1V9a3,3,0,0,1,5.739-1.222c.029-.03.063-.054.094-.083A4.479,4.479,0,0,1,23,6a4.58,4.58,0,0,1,.058-.691,4.166,4.166,0,0,0-.379-.246,3,3,0,1,0-4.358,0A4.5,4.5,0,0,0,16,9v2.5A1.5,1.5,0,0,0,17.5,13Zm3-11.5A1.5,1.5,0,1,1,19,3,1.5,1.5,0,0,1,20.5,1.5Z"/></svg>