<svg xmlns="http://www.w3.org/2000/svg" width="32" height="32" viewBox="0 0 32 32"><defs><style>.a{fill:#354052;}.b{fill:none;}</style></defs><title>scenario</title><path class="a" d="M21.035,13.554a.9.9,0,0,0,.895-.895V.9A.9.9,0,0,0,21.035,0H10.966a.9.9,0,0,0-.9.9V12.659a.9.9,0,0,0,.9.895H4.2v2H27.8v-2ZM12.07,2h7.86v9.554H12.07ZM25.523,28.411V23.666a3.159,3.159,0,0,0-3.162-3.157h.893a.689.689,0,0,0,.687-.687V19.7a.689.689,0,0,0-.687-.686h.159V17.677a.577.577,0,0,0-.576-.576H19.771a.578.578,0,0,0-.577.576v1.332h.16a.689.689,0,0,0-.687.686v.127a.689.689,0,0,0,.687.687h.893a3.162,3.162,0,0,0-3.162,3.161v4.743A1.588,1.588,0,0,0,18.672,30H13.326a1.588,1.588,0,0,0,1.589-1.589V23.666a3.159,3.159,0,0,0-3.162-3.157h.893a.689.689,0,0,0,.687-.687V19.7a.689.689,0,0,0-.687-.686h.16V17.677a.578.578,0,0,0-.577-.576H9.163a.578.578,0,0,0-.577.576v1.332h.16a.689.689,0,0,0-.687.686v.127a.689.689,0,0,0,.687.687h.893A3.162,3.162,0,0,0,6.477,23.67v4.743A1.588,1.588,0,0,0,8.064,30H4.2v2H27.8V30H23.934A1.588,1.588,0,0,0,25.523,28.411ZM8.477,23.67a1.163,1.163,0,0,1,1.162-1.161h2.114a1.161,1.161,0,0,1,1.162,1.157v.014H8.477Zm0,3.169h4.438V28H8.477ZM19.085,23.67a1.163,1.163,0,0,1,1.162-1.161h2.114a1.161,1.161,0,0,1,1.162,1.157v.014H19.085Zm0,3.169h4.438V28H19.085Z"/><rect class="b" width="32" height="32"/></svg>