<svg xmlns="http://www.w3.org/2000/svg" width="32" height="32" viewBox="0 0 32 32"><defs><style>.a{fill:none;}.b{fill:#354052;fill-rule:evenodd;}</style></defs><title>sort</title><rect class="a" width="32" height="32"/><rect class="a" width="32" height="32"/><path class="b" d="M10.273,8H6.143L.519,24H4.157l1.157-3.793h5.811L12.278,24H15.92Zm-4.11,9.373q1.7-5.5,2.061-6.9c.059.262.154.617.289,1.068s.737,2.394,1.8,5.831Zm16.3,3.825,7.661-11.009V8H18.633v2.8H26.1l-7.669,11V24H30.333V21.2ZM13.2,28l-.6.6L16,32l3.4-3.4-.6-.6ZM18.8,4l.6-.6L16,0,12.6,3.4l.6.6Z"/></svg>