<svg xmlns="http://www.w3.org/2000/svg" width="32" height="32" viewBox="0 0 32 32"><defs><style>.a{fill:none;}.b{fill:#354052;}</style></defs><title>story_blank</title><rect class="a" width="32" height="32"/><path class="b" d="M16,32c2.6-2.6,8.143-4.7,12.419-4.7A8.1,8.1,0,0,1,32,28V2A12.044,12.044,0,0,0,25.554.171,11.171,11.171,0,0,0,16,5.475,11.171,11.171,0,0,0,6.446.171,12.044,12.044,0,0,0,0,2V28a8.1,8.1,0,0,1,3.581-.7C7.857,27.3,13.4,29.4,16,32Zm0-3.842A23.914,23.914,0,0,0,3.581,24.3c-.2,0-.39,0-.581.01V3.817a9.558,9.558,0,0,1,3.446-.646,8.166,8.166,0,0,1,7.06,3.972L16,10.87l2.494-3.727a8.166,8.166,0,0,1,7.06-3.972A9.558,9.558,0,0,1,29,3.817V24.309c-.191-.007-.384-.01-.581-.01A23.914,23.914,0,0,0,16,28.158ZM28,18.5H23.5V23h-3V18.5H16v-3h4.5V11h3v4.5H28Z"/></svg>