<svg xmlns="http://www.w3.org/2000/svg" width="32" height="32" viewBox="0 0 32 32"><defs><style>.a{fill:#354052;}.b{fill:none;}</style></defs><title>template_adjust</title><path class="a" d="M2,22H6V20H2ZM2,32H6V30H2ZM8,22h4V20H8ZM8,32h4V30H8Zm6-10h4V20H14Zm0,10h4V30H14ZM4,24H2v4H4Zm12,4h2V24H16Zm4-6h4V20H20Zm0,10h4V30H20Zm6-10h4V20H26Zm0,10h4V30H26Zm-6-8v4h2V24Zm8,4h2V24H28ZM2,8H6V6H2ZM2,18H6V16H2ZM8,8h4V6H8ZM8,18h4V16H8ZM14,8h4V6H14Zm0,10h4V16H14ZM4,10H2v4H4Zm12,4h2V10H16Zm4-6h4V6H20Zm0,10h4V16H20ZM26,8h4V6H26Zm0,10h4V16H26Zm-6-8v4h2V10Zm8,4h2V10H28ZM2,0V4H30V0Z"/><rect class="b" width="32" height="32"/></svg>