<svg xmlns="http://www.w3.org/2000/svg" width="32" height="32" viewBox="0 0 32 32"><defs><style>.a{fill:#354052;fill-rule:evenodd;}.b{fill:none;}</style></defs><title>view_show</title><path class="a" d="M18,18a3.988,3.988,0,0,1-.844-7.889A6.147,6.147,0,0,0,16,10a5.989,5.989,0,1,0,5.906,4.932A4.018,4.018,0,0,1,18,18ZM16,4.23C8.132,4.23,1.515,9.648,0,16c1.515,6.352,8.132,11.77,16,11.77S30.484,22.352,32,16C30.484,9.648,23.867,4.23,16,4.23Zm0,21.54c-5.7,0-12.485-3.418-14-9.77,1.515-6.352,8.3-9.77,14-9.77S28.484,9.648,30,16C28.484,22.352,21.7,25.77,16,25.77Z"/><rect class="b" width="32" height="32"/></svg>